<svg xmlns="http://www.w3.org/2000/svg" xmlns:xlink="http://www.w3.org/1999/xlink" width="180" zoomAndPan="magnify" viewBox="0 0 135 67.499998" height="90" preserveAspectRatio="xMidYMid meet" version="1.0"><defs><g/><clipPath id="0eab5e1fe9"><path d="M 15 21 L 43 21 L 43 61 L 15 61 Z M 15 21 " clip-rule="nonzero"/></clipPath><clipPath id="80d6be7832"><path d="M 41.664062 63.519531 L 6.429688 54.535156 L 14.964844 21.0625 L 50.199219 30.046875 Z M 41.664062 63.519531 " clip-rule="nonzero"/></clipPath><clipPath id="ddb0419e12"><path d="M 41.664062 63.519531 L 6.429688 54.535156 L 14.964844 21.0625 L 50.199219 30.046875 Z M 41.664062 63.519531 " clip-rule="nonzero"/></clipPath></defs><g clip-path="url(#0eab5e1fe9)"><g clip-path="url(#80d6be7832)"><g clip-path="url(#ddb0419e12)"><path fill="#ff3131" d="M 29.871094 60.46875 C 29.632812 60.414062 29.296875 60.195312 29.121094 59.980469 C 28.878906 59.683594 28.832031 59.46875 28.929688 59.089844 C 29 58.8125 29.535156 57.785156 30.121094 56.804688 C 30.707031 55.820312 31.203125 54.953125 31.222656 54.875 C 31.242188 54.796875 30.871094 54.445312 30.394531 54.09375 C 29.917969 53.742188 28.867188 52.8125 28.0625 52.035156 C 27.253906 51.253906 26.199219 50.148438 25.714844 49.582031 C 25.230469 49.015625 24.355469 47.882812 23.765625 47.070312 C 23.179688 46.253906 22.230469 44.753906 21.664062 43.738281 C 21.09375 42.71875 20.203125 40.957031 19.6875 39.820312 C 19.171875 38.683594 18.425781 36.847656 18.03125 35.742188 C 17.632812 34.636719 17.097656 32.988281 16.839844 32.085938 C 16.582031 31.179688 16.179688 29.503906 15.949219 28.355469 C 15.71875 27.207031 15.476562 25.535156 15.40625 24.636719 C 15.339844 23.738281 15.328125 22.828125 15.382812 22.609375 C 15.4375 22.394531 15.667969 22.082031 15.898438 21.921875 C 16.175781 21.726562 16.46875 21.660156 16.78125 21.726562 C 17.070312 21.792969 17.328125 21.964844 17.460938 22.1875 C 17.582031 22.386719 17.6875 23.03125 17.699219 23.621094 C 17.710938 24.210938 17.816406 25.300781 17.929688 26.042969 C 18.046875 26.78125 18.378906 28.410156 18.667969 29.65625 C 18.960938 30.90625 19.464844 32.710938 19.789062 33.675781 C 20.113281 34.640625 20.664062 36.117188 21.007812 36.957031 C 21.351562 37.800781 22.042969 39.3125 22.539062 40.320312 C 23.039062 41.328125 23.828125 42.789062 24.292969 43.574219 C 24.757812 44.355469 25.597656 45.609375 26.160156 46.355469 C 26.722656 47.105469 27.695312 48.269531 28.320312 48.941406 C 28.945312 49.617188 29.988281 50.636719 30.636719 51.214844 C 31.285156 51.789062 31.976562 52.375 32.523438 52.769531 L 33.175781 51.679688 C 33.53125 51.078125 34.035156 50.230469 34.292969 49.792969 C 34.550781 49.355469 34.90625 48.914062 35.085938 48.8125 C 35.273438 48.707031 35.628906 48.6875 35.945312 48.765625 C 36.457031 48.898438 36.621094 49.140625 39.597656 54.152344 C 42.390625 58.867188 42.699219 59.453125 42.59375 59.871094 C 42.515625 60.179688 42.3125 60.445312 41.976562 60.660156 C 41.5 60.96875 41.195312 60.976562 35.890625 60.773438 C 32.820312 60.660156 30.113281 60.519531 29.875 60.46875 Z M 29.871094 60.46875 " fill-opacity="1" fill-rule="nonzero"/></g></g></g><g fill="#ff3131" fill-opacity="1"><g transform="translate(27.508262, 46.135262)"><g><path d="M 6.859375 -0.546875 C 6.773438 -1.453125 6.691406 -2.34375 6.609375 -3.21875 C 6.535156 -4.09375 6.453125 -4.9375 6.359375 -5.75 L 5.546875 -14.796875 C 5.515625 -15.484375 5.476562 -16.113281 5.4375 -16.6875 C 5.394531 -17.257812 5.34375 -17.8125 5.28125 -18.34375 C 5.21875 -18.882812 5.15625 -19.429688 5.09375 -19.984375 C 5.039062 -20.546875 4.976562 -21.160156 4.90625 -21.828125 C 4.476562 -21.765625 4.035156 -21.695312 3.578125 -21.625 C 3.117188 -21.550781 2.640625 -21.472656 2.140625 -21.390625 L -1.515625 -20.765625 C -1.660156 -20.742188 -1.753906 -20.78125 -1.796875 -20.875 C -1.847656 -20.976562 -1.878906 -21.078125 -1.890625 -21.171875 L -1.90625 -21.296875 L -0.75 -27.109375 L -0.78125 -27.1875 C -0.789062 -27.25 -0.753906 -27.304688 -0.671875 -27.359375 C -0.597656 -27.421875 -0.425781 -27.492188 -0.15625 -27.578125 C 1.570312 -27.960938 3.242188 -28.335938 4.859375 -28.703125 C 6.472656 -29.078125 8.066406 -29.429688 9.640625 -29.765625 C 11.222656 -30.109375 12.804688 -30.453125 14.390625 -30.796875 C 15.984375 -31.140625 17.617188 -31.488281 19.296875 -31.84375 C 19.441406 -31.863281 19.601562 -31.867188 19.78125 -31.859375 C 19.957031 -31.847656 20.066406 -31.726562 20.109375 -31.5 C 20.109375 -31.46875 20.101562 -31.4375 20.09375 -31.40625 C 20.082031 -31.375 20.078125 -31.347656 20.078125 -31.328125 C 19.972656 -30.773438 19.875 -30.253906 19.78125 -29.765625 C 19.695312 -29.273438 19.609375 -28.785156 19.515625 -28.296875 C 19.421875 -27.816406 19.328125 -27.328125 19.234375 -26.828125 C 19.148438 -26.335938 19.050781 -25.816406 18.9375 -25.265625 C 18.925781 -25.242188 18.90625 -25.175781 18.875 -25.0625 C 18.851562 -24.957031 18.816406 -24.832031 18.765625 -24.6875 C 18.722656 -24.539062 18.644531 -24.398438 18.53125 -24.265625 C 18.425781 -24.140625 18.28125 -24.050781 18.09375 -24 C 18.03125 -24.007812 17.960938 -24.003906 17.890625 -23.984375 C 17.828125 -23.972656 17.757812 -23.960938 17.6875 -23.953125 L 12.65625 -23.109375 C 12.695312 -22.453125 12.75 -21.757812 12.8125 -21.03125 C 12.875 -20.300781 12.925781 -19.585938 12.96875 -18.890625 L 14.0625 -3.90625 C 14.0625 -3.789062 14.050781 -3.671875 14.03125 -3.546875 C 14.019531 -3.429688 13.957031 -3.335938 13.84375 -3.265625 L 8.8125 -0.453125 C 8.675781 -0.367188 8.5 -0.269531 8.28125 -0.15625 C 8.070312 -0.0390625 7.859375 0.03125 7.640625 0.0625 C 7.472656 0.09375 7.3125 0.0703125 7.15625 0 C 7.007812 -0.0703125 6.914062 -0.226562 6.875 -0.46875 Z M 6.859375 -0.546875 "/></g></g></g><g fill="#ff3131" fill-opacity="1"><g transform="translate(48.87385, 42.557161)"><g><path d="M 10 -23.359375 C 11.195312 -23.554688 12.320312 -23.515625 13.375 -23.234375 C 14.425781 -22.953125 15.359375 -22.507812 16.171875 -21.90625 C 16.992188 -21.3125 17.671875 -20.601562 18.203125 -19.78125 C 18.734375 -18.96875 19.070312 -18.125 19.21875 -17.25 C 19.34375 -16.46875 19.226562 -15.640625 18.875 -14.765625 C 18.53125 -13.898438 17.976562 -13.082031 17.21875 -12.3125 C 16.457031 -11.539062 15.503906 -10.859375 14.359375 -10.265625 C 13.222656 -9.671875 11.929688 -9.253906 10.484375 -9.015625 C 9.722656 -8.890625 8.914062 -8.828125 8.0625 -8.828125 C 8.207031 -8.285156 8.441406 -7.84375 8.765625 -7.5 C 9.097656 -7.15625 9.484375 -6.890625 9.921875 -6.703125 C 10.367188 -6.523438 10.859375 -6.414062 11.390625 -6.375 C 11.921875 -6.34375 12.457031 -6.375 13 -6.46875 C 13.601562 -6.570312 14.175781 -6.722656 14.71875 -6.921875 C 15.257812 -7.128906 15.773438 -7.363281 16.265625 -7.625 C 16.753906 -7.882812 17.21875 -8.160156 17.65625 -8.453125 C 18.101562 -8.753906 18.523438 -9.050781 18.921875 -9.34375 C 19.023438 -9.375 19.117188 -9.40625 19.203125 -9.4375 C 19.285156 -9.476562 19.363281 -9.503906 19.4375 -9.515625 C 19.4375 -9.515625 19.445312 -9.410156 19.46875 -9.203125 C 19.5 -9.003906 19.546875 -8.722656 19.609375 -8.359375 C 19.671875 -7.992188 19.742188 -7.550781 19.828125 -7.03125 C 19.910156 -6.507812 19.992188 -5.9375 20.078125 -5.3125 C 20.128906 -5.25 20.164062 -5.1875 20.1875 -5.125 C 20.21875 -5.070312 20.234375 -5.03125 20.234375 -5 C 20.265625 -4.84375 20.148438 -4.648438 19.890625 -4.421875 C 19.640625 -4.203125 19.3125 -3.957031 18.90625 -3.6875 C 18.5 -3.425781 18.019531 -3.15625 17.46875 -2.875 C 16.914062 -2.601562 16.359375 -2.347656 15.796875 -2.109375 C 15.234375 -1.867188 14.679688 -1.660156 14.140625 -1.484375 C 13.597656 -1.304688 13.117188 -1.179688 12.703125 -1.109375 C 11.347656 -0.878906 9.988281 -0.894531 8.625 -1.15625 C 7.257812 -1.414062 6.007812 -1.898438 4.875 -2.609375 C 3.738281 -3.328125 2.769531 -4.265625 1.96875 -5.421875 C 1.164062 -6.585938 0.628906 -7.960938 0.359375 -9.546875 C 0.0859375 -11.191406 0.113281 -12.785156 0.4375 -14.328125 C 0.757812 -15.867188 1.34375 -17.257812 2.1875 -18.5 C 3.039062 -19.75 4.125 -20.796875 5.4375 -21.640625 C 6.757812 -22.492188 8.28125 -23.066406 10 -23.359375 Z M 10.625 -18.3125 C 10.101562 -18.21875 9.644531 -18.019531 9.25 -17.71875 C 8.851562 -17.425781 8.507812 -17.046875 8.21875 -16.578125 C 7.925781 -16.109375 7.695312 -15.5625 7.53125 -14.9375 C 7.363281 -14.320312 7.253906 -13.660156 7.203125 -12.953125 C 8.460938 -13.398438 9.5 -13.816406 10.3125 -14.203125 C 11.125 -14.597656 11.765625 -14.96875 12.234375 -15.3125 C 12.710938 -15.65625 13.035156 -15.972656 13.203125 -16.265625 C 13.378906 -16.566406 13.445312 -16.835938 13.40625 -17.078125 C 13.375 -17.304688 13.253906 -17.503906 13.046875 -17.671875 C 12.835938 -17.835938 12.59375 -17.976562 12.3125 -18.09375 C 12.03125 -18.207031 11.738281 -18.28125 11.4375 -18.3125 C 11.132812 -18.34375 10.863281 -18.34375 10.625 -18.3125 Z M 10.625 -18.3125 "/></g></g></g><g fill="#ff3131" fill-opacity="1"><g transform="translate(69.918102, 39.032874)"><g><path d="M 0.34375 -9.546875 C 0.0703125 -11.191406 0.117188 -12.785156 0.484375 -14.328125 C 0.859375 -15.878906 1.492188 -17.28125 2.390625 -18.53125 C 3.285156 -19.78125 4.414062 -20.835938 5.78125 -21.703125 C 7.144531 -22.566406 8.691406 -23.140625 10.421875 -23.421875 C 11.585938 -23.617188 12.601562 -23.691406 13.46875 -23.640625 C 14.332031 -23.597656 15.046875 -23.503906 15.609375 -23.359375 C 16.171875 -23.210938 16.59375 -23.0625 16.875 -22.90625 C 17.164062 -22.757812 17.3125 -22.675781 17.3125 -22.65625 C 17.320312 -22.582031 17.328125 -22.367188 17.328125 -22.015625 C 17.328125 -21.660156 17.332031 -21.242188 17.34375 -20.765625 C 17.351562 -20.296875 17.367188 -19.8125 17.390625 -19.3125 C 17.410156 -18.820312 17.445312 -18.398438 17.5 -18.046875 C 17.507812 -17.984375 17.503906 -17.910156 17.484375 -17.828125 C 17.460938 -17.742188 17.367188 -17.6875 17.203125 -17.65625 C 17.054688 -17.632812 16.828125 -17.65625 16.515625 -17.71875 C 16.203125 -17.78125 15.828125 -17.835938 15.390625 -17.890625 C 14.953125 -17.953125 14.445312 -17.988281 13.875 -18 C 13.3125 -18.007812 12.695312 -17.960938 12.03125 -17.859375 C 11.195312 -17.710938 10.46875 -17.4375 9.84375 -17.03125 C 9.226562 -16.625 8.722656 -16.113281 8.328125 -15.5 C 7.941406 -14.894531 7.679688 -14.210938 7.546875 -13.453125 C 7.410156 -12.691406 7.414062 -11.894531 7.5625 -11.0625 C 7.707031 -10.207031 7.960938 -9.492188 8.328125 -8.921875 C 8.691406 -8.359375 9.132812 -7.921875 9.65625 -7.609375 C 10.1875 -7.296875 10.757812 -7.101562 11.375 -7.03125 C 11.988281 -6.957031 12.625 -6.976562 13.28125 -7.09375 C 14.03125 -7.21875 14.773438 -7.445312 15.515625 -7.78125 C 16.253906 -8.113281 16.929688 -8.53125 17.546875 -9.03125 C 17.566406 -9.039062 17.613281 -9.050781 17.6875 -9.0625 C 17.75 -9.070312 17.800781 -9.046875 17.84375 -8.984375 C 17.882812 -8.929688 17.921875 -8.816406 17.953125 -8.640625 C 18.023438 -8.234375 18.109375 -7.742188 18.203125 -7.171875 C 18.296875 -6.597656 18.382812 -6.050781 18.46875 -5.53125 C 18.550781 -5.007812 18.617188 -4.566406 18.671875 -4.203125 C 18.722656 -3.835938 18.738281 -3.648438 18.71875 -3.640625 C 18.320312 -3.253906 17.875 -2.921875 17.375 -2.640625 C 16.875 -2.367188 16.351562 -2.128906 15.8125 -1.921875 C 15.269531 -1.722656 14.71875 -1.554688 14.15625 -1.421875 C 13.601562 -1.285156 13.0625 -1.171875 12.53125 -1.078125 C 11.0625 -0.835938 9.644531 -0.859375 8.28125 -1.140625 C 6.925781 -1.421875 5.703125 -1.925781 4.609375 -2.65625 C 3.523438 -3.394531 2.609375 -4.34375 1.859375 -5.5 C 1.109375 -6.664062 0.601562 -8.015625 0.34375 -9.546875 Z M 0.34375 -9.546875 "/></g></g></g><g fill="#ff3131" fill-opacity="1"><g transform="translate(89.28006, 35.790321)"><g><path d="M -0.171875 -28.203125 C -0.191406 -28.285156 -0.207031 -28.359375 -0.21875 -28.421875 C -0.238281 -28.484375 -0.253906 -28.546875 -0.265625 -28.609375 C -0.285156 -28.722656 -0.253906 -28.828125 -0.171875 -28.921875 C -0.0976562 -29.023438 0.09375 -29.148438 0.40625 -29.296875 L 5.53125 -31.453125 C 5.644531 -31.492188 5.804688 -31.578125 6.015625 -31.703125 C 6.234375 -31.835938 6.453125 -31.921875 6.671875 -31.953125 C 7.109375 -32.023438 7.363281 -31.859375 7.4375 -31.453125 C 7.4375 -31.429688 7.457031 -31.171875 7.5 -30.671875 C 7.550781 -30.171875 7.609375 -29.550781 7.671875 -28.8125 C 7.734375 -28.070312 7.796875 -27.265625 7.859375 -26.390625 C 7.921875 -25.515625 7.984375 -24.675781 8.046875 -23.875 C 8.109375 -23.082031 8.15625 -22.390625 8.1875 -21.796875 C 8.21875 -21.203125 8.226562 -20.816406 8.21875 -20.640625 C 8.757812 -21.054688 9.328125 -21.460938 9.921875 -21.859375 C 10.515625 -22.265625 11.117188 -22.628906 11.734375 -22.953125 C 12.347656 -23.273438 12.96875 -23.550781 13.59375 -23.78125 C 14.226562 -24.007812 14.84375 -24.171875 15.4375 -24.265625 C 16.207031 -24.398438 16.941406 -24.410156 17.640625 -24.296875 C 18.347656 -24.191406 18.992188 -23.925781 19.578125 -23.5 C 20.160156 -23.070312 20.660156 -22.46875 21.078125 -21.6875 C 21.503906 -20.90625 21.816406 -19.914062 22.015625 -18.71875 C 22.066406 -18.414062 22.113281 -18.101562 22.15625 -17.78125 C 22.195312 -17.457031 22.226562 -17.125 22.25 -16.78125 L 22.75 -8.9375 C 22.757812 -8.382812 22.804688 -7.816406 22.890625 -7.234375 C 22.984375 -6.660156 23.078125 -6.078125 23.171875 -5.484375 C 23.191406 -5.378906 23.207031 -5.289062 23.21875 -5.21875 C 23.238281 -5.144531 23.253906 -5.082031 23.265625 -5.03125 C 23.285156 -4.914062 23.253906 -4.816406 23.171875 -4.734375 C 23.085938 -4.660156 22.894531 -4.546875 22.59375 -4.390625 L 18.15625 -2.34375 C 18.03125 -2.28125 17.863281 -2.1875 17.65625 -2.0625 C 17.445312 -1.945312 17.234375 -1.875 17.015625 -1.84375 C 16.796875 -1.800781 16.617188 -1.816406 16.484375 -1.890625 C 16.359375 -1.972656 16.273438 -2.148438 16.234375 -2.421875 C 16.160156 -3.390625 16.101562 -4.164062 16.0625 -4.75 C 16.019531 -5.332031 15.984375 -5.800781 15.953125 -6.15625 C 15.929688 -6.519531 15.914062 -6.789062 15.90625 -6.96875 C 15.90625 -7.15625 15.894531 -7.320312 15.875 -7.46875 C 15.863281 -7.625 15.859375 -7.789062 15.859375 -7.96875 C 15.859375 -8.15625 15.84375 -8.425781 15.8125 -8.78125 C 15.78125 -9.144531 15.742188 -9.625 15.703125 -10.21875 C 15.671875 -10.8125 15.617188 -11.582031 15.546875 -12.53125 C 15.515625 -13.050781 15.484375 -13.5625 15.453125 -14.0625 C 15.421875 -14.570312 15.375 -15.035156 15.3125 -15.453125 C 15.21875 -15.984375 15.109375 -16.457031 14.984375 -16.875 C 14.859375 -17.300781 14.691406 -17.65625 14.484375 -17.9375 C 14.285156 -18.21875 14.046875 -18.425781 13.765625 -18.5625 C 13.492188 -18.707031 13.160156 -18.75 12.765625 -18.6875 C 12.484375 -18.632812 12.101562 -18.5 11.625 -18.28125 C 11.144531 -18.070312 10.675781 -17.78125 10.21875 -17.40625 C 9.769531 -17.039062 9.394531 -16.585938 9.09375 -16.046875 C 8.789062 -15.515625 8.671875 -14.894531 8.734375 -14.1875 C 8.796875 -13.195312 8.851562 -12.390625 8.90625 -11.765625 C 8.957031 -11.140625 8.992188 -10.617188 9.015625 -10.203125 C 9.046875 -9.796875 9.070312 -9.472656 9.09375 -9.234375 C 9.113281 -9.003906 9.132812 -8.78125 9.15625 -8.5625 C 9.15625 -8.5 9.160156 -8.34375 9.171875 -8.09375 C 9.191406 -7.84375 9.207031 -7.546875 9.21875 -7.203125 C 9.238281 -6.859375 9.265625 -6.488281 9.296875 -6.09375 C 9.328125 -5.707031 9.351562 -5.335938 9.375 -4.984375 C 9.394531 -4.640625 9.414062 -4.34375 9.4375 -4.09375 C 9.46875 -3.84375 9.488281 -3.6875 9.5 -3.625 C 9.507812 -3.519531 9.523438 -3.4375 9.546875 -3.375 C 9.566406 -3.3125 9.582031 -3.25 9.59375 -3.1875 C 9.601562 -3.09375 9.566406 -3 9.484375 -2.90625 C 9.398438 -2.820312 9.207031 -2.703125 8.90625 -2.546875 L 4.25 -0.015625 C 4.113281 0.0546875 3.941406 0.148438 3.734375 0.265625 C 3.523438 0.378906 3.3125 0.457031 3.09375 0.5 C 2.914062 0.53125 2.75 0.5 2.59375 0.40625 C 2.445312 0.320312 2.351562 0.15625 2.3125 -0.09375 Z M -0.171875 -28.203125 "/></g></g></g><g fill="#000000" fill-opacity="1"><g transform="translate(44.926684, 60.144077)"><g><path d="M 4.390625 -0.546875 C 6.21875 -0.84375 7.25 -1.640625 7.875 -2.5625 C 7.96875 -2.375 8.078125 -2.1875 8.21875 -1.96875 C 8.421875 -1.5 8.859375 -1.3125 9.40625 -1.390625 C 9.640625 -1.4375 9.890625 -1.546875 10.15625 -1.6875 C 10.796875 -2.0625 11.109375 -2.421875 11.046875 -2.84375 C 11.015625 -3 10.953125 -3.15625 10.859375 -3.296875 C 10.578125 -3.6875 10.21875 -4.40625 10.109375 -5 C 9.984375 -5.796875 9.953125 -6.40625 9.765625 -7.515625 C 9.359375 -9.9375 7.03125 -10.96875 4.234375 -10.5 C 2.515625 -10.21875 1.125 -9.78125 0.359375 -9.125 C 0.078125 -8.875 -0.09375 -8.59375 -0.03125 -8.25 C 0 -8.0625 0.09375 -7.84375 0.265625 -7.59375 C 0.609375 -7.125 0.90625 -6.921875 1.34375 -6.984375 C 1.53125 -7.015625 1.734375 -7.125 1.953125 -7.234375 C 2.6875 -7.65625 3.359375 -8.03125 4.3125 -8.1875 C 5.546875 -8.390625 6.5 -8.03125 6.796875 -7.09375 C 6.84375 -6.890625 6.90625 -6.625 6.953125 -6.359375 C 6.125 -6.78125 4.984375 -6.953125 3.9375 -6.78125 C 0.75 -6.25 -0.1875 -4.78125 0.109375 -2.953125 C 0.421875 -1.078125 1.890625 -0.125 4.390625 -0.546875 Z M 2.96875 -3.703125 C 2.875 -4.3125 3.25 -4.8125 4.4375 -5.015625 C 5.421875 -5.1875 6.46875 -4.953125 7.03125 -4.34375 C 6.421875 -3.5625 5.765625 -3.140625 4.734375 -2.96875 C 3.671875 -2.78125 3.09375 -3.03125 2.96875 -3.703125 Z M 2.96875 -3.703125 "/></g></g></g><g fill="#000000" fill-opacity="1"><g transform="translate(56.735227, 58.16703)"><g><path d="M 5.46875 -0.71875 C 6.921875 -0.96875 7.96875 -1.78125 8.578125 -3.0625 C 8.71875 -2.671875 8.875 -2.3125 9.0625 -2.078125 C 9.390625 -1.59375 9.671875 -1.421875 10.078125 -1.5 C 10.359375 -1.546875 10.6875 -1.703125 11.140625 -1.984375 C 11.640625 -2.28125 11.859375 -2.578125 11.78125 -3.046875 C 11.75 -3.25 11.640625 -3.5 11.484375 -3.78125 C 10.890625 -4.8125 10.65625 -5.984375 10.171875 -8.875 C 9.78125 -11.265625 9.546875 -14.09375 9.390625 -15.03125 C 9.25 -15.84375 9.046875 -16.09375 7.609375 -15.859375 C 6.625 -15.6875 6.390625 -15.375 6.5 -14.390625 C 6.625 -13.625 6.84375 -11.671875 7.078125 -9.890625 C 6.25 -10.453125 5.140625 -10.65625 3.75 -10.421875 C 0.53125 -9.890625 -0.609375 -7.734375 -0.140625 -4.9375 C 0.4375 -1.484375 2.578125 -0.234375 5.46875 -0.71875 Z M 2.765625 -5.375 C 2.546875 -6.625 3.109375 -7.75 4.609375 -8 C 5.859375 -8.203125 6.828125 -7.671875 7.453125 -6.484375 C 7.375 -4.703125 6.609375 -3.59375 5.3125 -3.375 C 3.9375 -3.15625 3.046875 -3.703125 2.765625 -5.375 Z M 2.765625 -5.375 "/></g></g></g><g fill="#000000" fill-opacity="1"><g transform="translate(69.460759, 56.036457)"><g><path d="M 5.203125 -0.671875 C 5.90625 -0.796875 6.5 -1.109375 7.03125 -1.5625 C 9.046875 -3.5 9.921875 -6.796875 9.375 -10.4375 C 9.265625 -11.015625 8.90625 -11.28125 7.75 -11.09375 C 6.78125 -10.9375 6.375 -10.5625 6.484375 -9.953125 C 6.890625 -7.09375 6.046875 -4.6875 4.90625 -3.25 C 3.6875 -4.3125 2.453125 -6.40625 1.984375 -9.234375 C 1.875 -9.9375 1.265625 -10.015625 0.328125 -9.859375 C -0.625 -9.6875 -1.015625 -9.421875 -0.890625 -8.640625 C -0.3125 -5.140625 1.0625 -2.296875 3.234375 -0.984375 C 3.84375 -0.671875 4.484375 -0.5625 5.203125 -0.671875 Z M 5.203125 -0.671875 "/></g></g></g><g fill="#000000" fill-opacity="1"><g transform="translate(80.820166, 54.134607)"><g><path d="M 2.59375 -0.234375 C 3.5 -0.390625 3.859375 -0.734375 3.6875 -1.75 C 3.515625 -2.75 3.21875 -5.484375 3.09375 -6.390625 C 3 -6.9375 2.953125 -7.4375 2.859375 -7.9375 C 2.796875 -8.34375 2.703125 -8.734375 2.59375 -9.203125 C 2.390625 -9.921875 1.921875 -10.125 1.203125 -10 C 1.0625 -9.96875 0.921875 -9.953125 0.765625 -9.921875 C -0.15625 -9.625 -0.359375 -9.203125 -0.21875 -8.4375 C -0.125 -7.8125 0.015625 -7.28125 0.109375 -6.6875 C 0.21875 -6.078125 0.296875 -5.4375 0.40625 -4.671875 C 0.609375 -3.25 0.65625 -2.28125 0.859375 -1.109375 C 1 -0.296875 1.328125 -0.03125 2.59375 -0.234375 Z M -0.9375 -12.546875 C -0.78125 -11.546875 -0.578125 -11.015625 0.8125 -11.25 C 1.84375 -11.421875 2.203125 -11.6875 2.140625 -12.515625 C 2.125 -12.90625 2.0625 -13.3125 1.96875 -13.890625 C 1.859375 -14.515625 1.421875 -14.859375 0.21875 -14.65625 C -0.8125 -14.484375 -1.1875 -14.09375 -1.046875 -13.265625 C -1 -13.015625 -0.984375 -12.796875 -0.9375 -12.546875 Z M -0.9375 -12.546875 "/></g></g></g><g fill="#000000" fill-opacity="1"><g transform="translate(86.00395, 53.266712)"><g><path d="M 4.90625 -0.625 C 8.484375 -1.234375 9.390625 -2.53125 9.09375 -4.28125 C 8.828125 -5.90625 7.8125 -6.75 5.109375 -6.671875 C 3.53125 -6.609375 3.03125 -6.734375 2.9375 -7.25 C 2.875 -7.65625 3.21875 -7.96875 3.953125 -8.09375 C 4.734375 -8.234375 5.640625 -8.15625 6.484375 -7.765625 C 6.6875 -7.6875 6.890625 -7.671875 7.0625 -7.703125 C 7.40625 -7.765625 7.703125 -8.015625 7.90625 -8.5 C 8.078125 -8.875 8.125 -9.171875 8.078125 -9.421875 C 8.03125 -9.71875 7.828125 -9.9375 7.46875 -10.0625 C 6.546875 -10.484375 5.328125 -10.6875 3.5 -10.390625 C 0.96875 -9.953125 -0.296875 -8.90625 0.03125 -6.890625 C 0.375 -4.890625 1.6875 -4.3125 4.296875 -4.484375 C 5.78125 -4.546875 6.109375 -4.328125 6.1875 -3.921875 C 6.265625 -3.4375 6 -3.140625 4.90625 -2.953125 C 3.9375 -2.796875 2.671875 -2.890625 1.59375 -3.15625 C 1.40625 -3.1875 1.234375 -3.1875 1.09375 -3.171875 C 0.71875 -3.109375 0.453125 -2.796875 0.296875 -2.046875 C 0.265625 -1.765625 0.265625 -1.515625 0.296875 -1.328125 C 0.359375 -0.953125 0.5625 -0.75 0.953125 -0.6875 C 1.984375 -0.40625 3.234375 -0.34375 4.90625 -0.625 Z M 4.90625 -0.625 "/></g></g></g><g fill="#000000" fill-opacity="1"><g transform="translate(96.390228, 51.527788)"><g><path d="M 5.890625 -0.796875 C 9.375 -1.375 10.921875 -3.359375 10.453125 -6.15625 C 10.28125 -7.1875 9.796875 -7.984375 9.125 -8.5625 C 9.203125 -8.765625 9.21875 -8.984375 9.1875 -9.140625 C 9.140625 -9.421875 8.984375 -9.640625 8.71875 -9.8125 C 7.640625 -10.5625 6.1875 -10.828125 4.234375 -10.5 C 0.859375 -9.9375 -0.5625 -7.546875 -0.125 -4.9375 C 0.40625 -1.796875 2.234375 -0.1875 5.890625 -0.796875 Z M 2.765625 -5.3125 C 2.546875 -6.6875 3.296875 -7.734375 4.609375 -7.953125 C 5.1875 -8.046875 5.71875 -8.03125 6.203125 -7.890625 C 6.171875 -7.765625 6.15625 -7.609375 6.171875 -7.5 C 6.21875 -7.234375 6.421875 -7.03125 6.6875 -6.890625 C 7.203125 -6.546875 7.484375 -6.109375 7.59375 -5.5 C 7.765625 -4.453125 7.234375 -3.625 5.75 -3.375 C 4.046875 -3.09375 3.03125 -3.71875 2.765625 -5.3125 Z M 2.765625 -5.3125 "/></g></g></g><g fill="#000000" fill-opacity="1"><g transform="translate(108.236205, 49.544475)"><g><path d="M 2.59375 -0.234375 C 3.671875 -0.421875 4.015625 -0.84375 3.890625 -1.640625 C 3.75 -2.390625 3.265625 -4.59375 3.171875 -5.125 C 2.84375 -7.046875 3.65625 -7.734375 4.5 -7.875 C 4.9375 -7.9375 5.328125 -7.890625 5.734375 -7.71875 C 5.890625 -7.671875 6.03125 -7.65625 6.171875 -7.6875 C 6.546875 -7.75 6.890625 -8.140625 7.078125 -8.625 C 7.1875 -9.015625 7.234375 -9.328125 7.203125 -9.59375 C 7.15625 -9.84375 7.015625 -10.046875 6.75 -10.203125 C 6.203125 -10.5625 5.59375 -10.671875 4.6875 -10.515625 C 3.921875 -10.390625 3.109375 -9.90625 2.59375 -9.09375 C 2.4375 -9.75 2.078125 -10.140625 0.84375 -9.9375 C -0.015625 -9.796875 -0.375 -9.4375 -0.25 -8.421875 C -0.125 -7.34375 0 -6.359375 0.203125 -5.140625 C 0.421875 -3.8125 0.703125 -2.296875 0.96875 -1.15625 C 1.109375 -0.484375 1.34375 -0.03125 2.59375 -0.234375 Z M 2.59375 -0.234375 "/></g></g></g></svg>